<?xml version="1.0" encoding="UTF-8"?> <svg xmlns="http://www.w3.org/2000/svg" viewBox="0 0 191 191"><defs><style>.cls-1{fill:#f3ccd8;}.cls-2{fill:#cc2c5f;}</style></defs><g id="Calque_2" data-name="Calque 2"><g id="Calque_5" data-name="Calque 5"><circle class="cls-1" cx="95.5" cy="95.5" r="95.5"></circle><path class="cls-2" d="M107.46,78.51a1.73,1.73,0,0,1-.75-.26,20.83,20.83,0,0,0-22.41,0A1.36,1.36,0,1,1,82.79,76a23.88,23.88,0,0,1,12.72-3.78A23.07,23.07,0,0,1,108.22,76a1.29,1.29,0,0,1,.38,1.89A1.53,1.53,0,0,1,107.46,78.51Z"></path><path class="cls-2" d="M77.5,71a1.31,1.31,0,0,1-1.13-.63,1.37,1.37,0,0,1,.38-1.88,34.52,34.52,0,0,1,37.51,0,1.36,1.36,0,1,1-1.51,2.26,32.08,32.08,0,0,0-34.49,0A1.71,1.71,0,0,1,77.5,71Z"></path><path class="cls-2" d="M100.42,85.05a1.71,1.71,0,0,1-.76-.25,7.41,7.41,0,0,0-8.18,0A1.36,1.36,0,1,1,90,82.53a10.57,10.57,0,0,1,11.2,0,1.29,1.29,0,0,1,.38,1.89A1.2,1.2,0,0,1,100.42,85.05Z"></path><circle class="cls-2" cx="95.51" cy="89.58" r="1.89"></circle><path class="cls-2" d="M150.14,116.77H40.87V49.18a7.85,7.85,0,0,1,7.81-7.81h93.53a7.84,7.84,0,0,1,7.8,7.81v67.59ZM43.64,114H147.37V49.18a5.06,5.06,0,0,0-5-5H48.68a5.06,5.06,0,0,0-5,5Z"></path><path class="cls-2" d="M141.2,104.06H49.81V50.18H141.2Zm-88.62-2.77h86V53h-86Z"></path><path class="cls-2" d="M157.06,139.68H34a1.33,1.33,0,0,1-1.13-.62,1.15,1.15,0,0,1-.13-1.26L41,114.89a1.22,1.22,0,0,1,1.76-.76,1.14,1.14,0,0,1,.76,1.64l-7.68,21.15H155.05l-7.68-21.15a1.36,1.36,0,1,1,2.52-1l8.31,22.91a1.52,1.52,0,0,1-.13,1.26A1,1,0,0,1,157.06,139.68Z"></path><path class="cls-2" d="M147.12,149.63H43.89A11.29,11.29,0,0,1,32.56,138.3a1.39,1.39,0,0,1,2.77,0,8.58,8.58,0,0,0,8.56,8.56H147.12a8.57,8.57,0,0,0,8.56-8.56,1.39,1.39,0,0,1,2.77,0A11.29,11.29,0,0,1,147.12,149.63Z"></path><path class="cls-2" d="M104.82,125.71H84.18a8.3,8.3,0,0,1-8.31-8.31v-2a1.39,1.39,0,1,1,2.77,0v2a5.64,5.64,0,0,0,5.66,5.67H105a5.64,5.64,0,0,0,5.66-5.67v-2a1.39,1.39,0,1,1,2.77,0v2A8.59,8.59,0,0,1,104.82,125.71Z"></path></g></g></svg> 